<?xml version="1.0" encoding="utf-8"?>
<!-- Generator: Adobe Illustrator 16.0.0, SVG Export Plug-In . SVG Version: 6.00 Build 0)  -->
<!DOCTYPE svg PUBLIC "-//W3C//DTD SVG 1.1 Basic//EN" "http://www.w3.org/Graphics/SVG/1.1/DTD/svg11-basic.dtd">
<svg version="1.1" baseProfile="basic" id="Layer_1"
	 xmlns="http://www.w3.org/2000/svg" xmlns:xlink="http://www.w3.org/1999/xlink" x="0px" y="0px" width="246.988px"
	 height="98.915px" viewBox="0 0 446.988 128.915" xml:space="preserve">
<g>
	<g>
		<polygon points="83.045,93.937 109.282,78.792 109.282,109.11 135.521,124.239 161.758,109.081 161.758,18.2 135.534,3.042 
			83.029,33.331 30.552,3.058 4.315,18.173 4.315,109.095 30.552,124.239 56.805,109.081 56.805,78.792 83.043,93.937 		"/>
	</g>
	<g>
		<g>
			<path d="M217.174,68.503h-7.539c-0.324,0-0.653,0.25-0.653,0.57l-0.93,5.879l-4.821,13.299l-4.827-13.299l-0.924-5.879
				c0-0.32-0.332-0.57-0.652-0.57h-7.54c-0.318,0-0.644,0.316-0.644,0.633v40.791c0,0.315,0.325,0.633,0.644,0.633h5.798
				c0.322,0,0.633-0.317,0.633-0.633v-22.66c1.855,5.348,3.888,10.679,4.263,11.768c0.108,0.42,0.453,0.628,0.64,0.628h5.222
				c0.182,0,0.531-0.208,0.639-0.628c0.378-1.089,2.406-6.42,4.26-11.768v22.66c0,0.315,0.311,0.633,0.634,0.633h5.8
				c0.315,0,0.644-0.317,0.644-0.633V69.136C217.818,68.819,217.49,68.503,217.174,68.503z"/>
			<path d="M245.75,68.503h-19.867c-0.322,0-0.639,0.323-0.639,0.64v40.788c0,0.312,0.316,0.629,0.639,0.629h19.867
				c0.316,0,0.644-0.317,0.644-0.629v-5.784c0-0.329-0.327-0.646-0.644-0.646h-13.42V91.465h10.218c0.328,0,0.64-0.317,0.64-0.636
				v-5.786c0-0.317-0.312-0.629-0.64-0.629h-10.218v-8.846h13.42c0.316,0,0.644-0.321,0.644-0.635v-5.791
				C246.394,68.826,246.067,68.503,245.75,68.503z"/>
			<path d="M270.678,103.501h-11.684V69.143c0-0.316-0.319-0.64-0.64-0.64h-5.813c-0.32,0-0.632,0.323-0.632,0.64v40.788
				c0,0.312,0.312,0.629,0.632,0.629h18.136c0.317,0,0.642-0.317,0.642-0.629v-5.784
				C271.32,103.817,270.996,103.501,270.678,103.501z"/>
			<path d="M354.815,68.503h-5.812c-0.319,0-0.636,0.323-0.636,0.64v32.455c0,1.396-1.218,1.903-2.491,1.903h-1.984
				c-1.285,0-2.493-0.508-2.493-1.903V69.143c0-0.316-0.321-0.64-0.641-0.64h-5.813c-0.319,0-0.641,0.323-0.641,0.64v34.426
				c0,3.875,3.136,6.991,7.03,6.991h7.092c3.893,0,7.022-3.116,7.022-6.991V69.143C355.45,68.826,355.136,68.503,354.815,68.503z"/>
			<path d="M413.842,68.503h-5.85c-0.138,0-0.335,0.13-0.465,0.273v-0.005l-0.014,0.02c-0.044,0.048-0.077,0.101-0.095,0.153
				l-0.016,0.047v16.21l-5.502-10.249l-0.932-5.879c0-0.32-0.325-0.57-0.641-0.57h-7.542c-0.32,0-0.642,0.316-0.642,0.633v40.791
				c0,0.315,0.321,0.633,0.642,0.633h5.796c0.315,0,0.637-0.317,0.637-0.633V83.743c2.911,6.255,7.605,13.733,8.184,15.203v10.98
				c0,0.315,0.319,0.633,0.641,0.633h5.798c0.319,0,0.637-0.317,0.637-0.633V69.136C414.479,68.819,414.162,68.503,413.842,68.503z"
				/>
			<path d="M442.37,75.568c0.321,0,0.645-0.321,0.645-0.635v-5.791c0-0.316-0.323-0.64-0.645-0.64h-19.854
				c-0.321,0-0.647,0.323-0.647,0.64v40.788c0,0.312,0.326,0.629,0.647,0.629h19.854c0.321,0,0.645-0.317,0.645-0.629v-5.784
				c0-0.329-0.323-0.646-0.645-0.646h-13.406V91.465h10.215c0.319,0,0.644-0.317,0.644-0.636v-5.786
				c0-0.317-0.324-0.629-0.644-0.629h-10.215v-8.846H442.37z"/>
			<path d="M386.515,109.665L380.918,95.9l0.508-0.358c2.099-1.401,3.305-4.329,3.305-6.997v-9.544
				c0-5.852-4.706-10.498-10.554-10.498h-10.69c-0.319,0-0.637,0.322-0.637,0.638v40.784c0,0.315,0.317,0.635,0.637,0.635h5.853
				c0.318,0,0.638-0.319,0.638-0.635V99.103h4.136l4.515,11.069c0.129,0.309,0.444,0.388,0.638,0.388h6.677
				C386.452,110.56,386.707,110.172,386.515,109.665z M377.546,88.479c0,1.907-1.525,3.563-3.369,3.563h-4.266V75.568h4.201
				c1.908,0,3.434,1.462,3.434,3.371V88.479z"/>
			<path d="M320.078,68.503h-7.092c-3.763,0-7.026,3.242-7.026,7.006v28.06c0,3.875,3.138,6.991,7.026,6.991h7.092
				c3.892,0,7.025-3.116,7.025-6.991v-28.06C327.103,71.745,323.851,68.503,320.078,68.503z M320.016,101.598
				c0,1.396-1.215,1.903-2.497,1.903h-1.974c-1.282,0-2.502-0.508-2.502-1.903V77.476c0-1.469,0.525-1.907,1.998-1.907h2.99
				c1.472,0,1.984,0.438,1.984,1.907V101.598z"/>
			<path d="M298.546,80.59v-2.162c0-5.854-4.729-9.925-10.597-9.925h-10.729c-0.325,0-0.65,0.323-0.65,0.64v40.788
				c0,0.312,0.325,0.629,0.65,0.629h10.729c5.867,0,10.597-4.642,10.597-10.491v-5.1c0-2.488-1.024-5.09-3.449-7.003
				C297.789,86.191,298.546,83.129,298.546,80.59z M291.328,100.132c0,1.908-1.532,3.369-3.445,3.369h-4.216V91.465h4.283
				c1.846,0,3.378,1.654,3.378,3.563V100.132z M291.328,81.164c0,1.781-1.592,3.25-3.445,3.25h-4.216v-8.846h4.216
				c1.913,0,3.445,1.651,3.445,3.562V81.164z"/>
		</g>
		<g>
			<path d="M209.153,19.354h-13.479c-3.709,0-7.029,3.119-7.029,7.004V54.42c0,4.455,3.711,6.991,7.029,6.991h13.479
				c0.318,0,0.639-0.316,0.639-0.629v-5.793c0-0.32-0.32-0.636-0.639-0.636h-10.925c-1.537,0-2.488-0.634-2.488-1.905V28.327
				c0-1.396,0.379-1.906,1.976-1.906h11.438c0.318,0,0.639-0.319,0.639-0.636v-5.79C209.792,19.679,209.471,19.354,209.153,19.354z"
				/>
			<path d="M335.268,19.354h-19.789c-0.317,0-0.639,0.322-0.639,0.633v40.784c0,0.321,0.321,0.64,0.639,0.64h5.777
				c0.317,0,0.631-0.318,0.631-0.64l0.017-18.536h10.18c0.325,0,0.646-0.309,0.646-0.635v-5.767c0-0.312-0.321-0.636-0.646-0.636
				h-10.18v-8.805h13.364c0.32,0,0.646-0.321,0.646-0.635v-5.771C335.914,19.677,335.588,19.354,335.268,19.354z"/>
			<path d="M302,19.354h-7.068c-3.762,0-7.001,3.231-7.001,6.973v28.105c0,3.87,3.115,6.979,7.001,6.979H302
				c3.875,0,6.999-3.108,6.999-6.979V26.327C308.999,22.586,305.745,19.354,302,19.354z M301.922,52.469
				c0,1.394-1.204,1.901-2.473,1.901h-1.973c-1.281,0-2.488-0.508-2.488-1.901V28.296c0-1.459,0.513-1.902,1.977-1.902h2.984
				c1.473,0,1.973,0.443,1.973,1.902V52.469z"/>
			<path d="M271.227,19.354h-6.448c-0.33,0-0.643,0.254-0.643,0.575l-0.706,5.979l-3.256,13.3l-3.326-13.3l-0.822-5.979
				c0-0.321-0.321-0.575-0.65-0.575h-6.44c-0.389,0-0.644,0.324-0.644,0.695c0.444,3.444,0.702,6.176,1.848,10.316
				c1.795,6.424,5.81,18.571,6.393,20.225v10.191c0,0.313,0.316,0.629,0.646,0.629h5.808c0.317,0,0.635-0.316,0.635-0.629V50.591
				c0.574-1.653,4.732-13.484,6.324-20.1c1.157-4.771,1.283-6.101,1.857-10.441C271.868,19.679,271.614,19.354,271.227,19.354z"/>
			<path d="M244.294,19.354h-18.144c-0.324,0-0.642,0.318-0.642,0.633v5.793c0,0.321,0.317,0.645,0.642,0.645h5.575v34.35
				c0,0.32,0.319,0.637,0.646,0.637h5.807c0.322,0,0.639-0.316,0.639-0.637v-34.35h5.478c0.319,0,0.641-0.323,0.641-0.645v-5.793
				C244.935,19.673,244.614,19.354,244.294,19.354z"/>
			<path d="M221.04,19.354h-5.814c-0.32,0-0.643,0.324-0.643,0.633v34.36h-0.005v6.431c0,0.322,0.323,0.633,0.647,0.633h5.814
				c0.314,0,0.635-0.311,0.635-0.633V19.987C221.674,19.679,221.354,19.354,221.04,19.354z"/>
		</g>
	</g>
</g>
</svg>
